HIERARCHY
ROOT Hips
{
	OFFSET 0.000000 89.005402 0.000000
	CHANNELS 6 Xposition Yposition Zposition Xrotation Yrotation Zrotation
	JOINT Spine
	{
		OFFSET 0.116900 10.681000 0.373400
		CHANNELS 3 Xrotation Yrotation Zrotation
		JOINT Spine1
		{
			OFFSET 0.000000 13.840401 0.053500
			CHANNELS 3 Xrotation Yrotation Zrotation
			JOINT Spine2
			{
				OFFSET 0.000000 14.712700 -0.366200
				CHANNELS 3 Xrotation Yrotation Zrotation
				JOINT Neck
				{
					OFFSET 0.000000 35.415497 -3.314200
					CHANNELS 3 Xrotation Yrotation Zrotation
					JOINT Head
					{
						OFFSET 0.000000 16.899200 1.218300
						CHANNELS 3 Xrotation Yrotation Zrotation
						JOINT HeadTop_End
						{
							OFFSET 0.000000 22.206207 2.192500
							CHANNELS 3 Xrotation Yrotation Zrotation
							End Site
							{
								OFFSET 0.000000 22.314178 0.000000
							}
						}
					}
				}
				JOINT LeftShoulder
				{
					OFFSET 12.896400 26.716293 -4.548400
					CHANNELS 3 Xrotation Yrotation Zrotation
					JOINT LeftArm
					{
						OFFSET 19.027000 -4.857010 -1.718400
						CHANNELS 3 Xrotation Yrotation Zrotation
						JOINT LeftForeArm
						{
							OFFSET 24.179897 0.000000 0.000000
							CHANNELS 3 Xrotation Yrotation Zrotation
							JOINT LeftHand
							{
								OFFSET 27.156403 0.000000 0.000000
								CHANNELS 3 Xrotation Yrotation Zrotation
								JOINT LeftHandIndex1
								{
									OFFSET 16.441200 0.000000 0.000000
									CHANNELS 3 Xrotation Yrotation Zrotation
									JOINT LeftHandIndex2
									{
										OFFSET 4.821899 0.000000 0.000000
										CHANNELS 3 Xrotation Yrotation Zrotation
										JOINT LeftHandIndex3
										{
											OFFSET 6.386497 0.000000 0.000000
											CHANNELS 3 Xrotation Yrotation Zrotation
											JOINT LeftHandIndex4
											{
												OFFSET 5.188988 0.000000 0.000000
												CHANNELS 3 Xrotation Yrotation Zrotation
												End Site
												{
													OFFSET -0.178703 5.185913 0.000177
												}
											}
										}
									}
								}
								JOINT LeftHandThumb1
								{
									OFFSET 6.534897 -5.032593 5.900300
									CHANNELS 3 Xrotation Yrotation Zrotation
									JOINT LeftHandThumb2
									{
										OFFSET 3.818176 -2.204422 2.204423
										CHANNELS 3 Xrotation Yrotation Zrotation
										JOINT LeftHandThumb3
										{
											OFFSET 3.252098 -1.877594 1.877601
											CHANNELS 3 Xrotation Yrotation Zrotation
											JOINT LeftHandThumb4
											{
												OFFSET 5.251778 -3.032120 3.032117
												CHANNELS 3 Xrotation Yrotation Zrotation
												End Site
												{
													OFFSET 0.000023 6.780014 0.000000
												}
											}
										}
									}
								}
							}
						}
					}
				}
				JOINT RightShoulder
				{
					OFFSET -12.896300 26.716293 -4.548400
					CHANNELS 3 Xrotation Yrotation Zrotation
					JOINT RightArm
					{
						OFFSET -19.027000 -4.857010 -1.718400
						CHANNELS 3 Xrotation Yrotation Zrotation
						JOINT RightForeArm
						{
							OFFSET -24.179897 0.000000 0.000000
							CHANNELS 3 Xrotation Yrotation Zrotation
							JOINT RightHand
							{
								OFFSET -27.156403 0.000000 0.000000
								CHANNELS 3 Xrotation Yrotation Zrotation
								JOINT RightHandThumb1
								{
									OFFSET -6.591202 -4.852203 5.988100
									CHANNELS 3 Xrotation Yrotation Zrotation
									JOINT RightHandThumb2
									{
										OFFSET -3.818176 -2.204422 2.204423
										CHANNELS 3 Xrotation Yrotation Zrotation
										JOINT RightHandThumb3
										{
											OFFSET -3.252098 -1.877594 1.877601
											CHANNELS 3 Xrotation Yrotation Zrotation
											JOINT RightHandThumb4
											{
												OFFSET -5.251778 -3.032120 3.032117
												CHANNELS 3 Xrotation Yrotation Zrotation
												End Site
												{
													OFFSET -0.000023 6.780014 0.000000
												}
											}
										}
									}
								}
								JOINT RightHandIndex1
								{
									OFFSET -16.029404 0.000000 0.000000
									CHANNELS 3 Xrotation Yrotation Zrotation
									JOINT RightHandIndex2
									{
										OFFSET -5.213303 0.000000 0.000000
										CHANNELS 3 Xrotation Yrotation Zrotation
										JOINT RightHandIndex3
										{
											OFFSET -6.386528 0.000000 0.000000
											CHANNELS 3 Xrotation Yrotation Zrotation
											JOINT RightHandIndex4
											{
												OFFSET -5.189026 0.000000 0.000000
												CHANNELS 3 Xrotation Yrotation Zrotation
												End Site
												{
													OFFSET 0.236702 5.183624 0.001972
												}
											}
										}
									}
								}
							}
						}
					}
				}
			}
		}
	}
	JOINT LeftUpLeg
	{
		OFFSET 14.073000 -7.904099 -1.463000
		CHANNELS 3 Xrotation Yrotation Zrotation
		JOINT LeftLeg
		{
			OFFSET -0.109806 -34.073280 4.093200
			CHANNELS 3 Xrotation Yrotation Zrotation
			JOINT LeftFoot
			{
				OFFSET 0.109806 -29.899420 -6.319000
				CHANNELS 3 Xrotation Yrotation Zrotation
				JOINT LeftToeBase
				{
					OFFSET 1.551100 -14.988700 20.535801
					CHANNELS 3 Xrotation Yrotation Zrotation
					JOINT LeftToe_End
					{
						OFFSET 0.221200 0.570800 13.248301
						CHANNELS 3 Xrotation Yrotation Zrotation
						End Site
						{
							OFFSET 0.000000 13.262435 0.000000
						}
					}
				}
			}
		}
	}
	JOINT RightUpLeg
	{
		OFFSET -13.839300 -7.904099 -1.463000
		CHANNELS 3 Xrotation Yrotation Zrotation
		JOINT RightLeg
		{
			OFFSET 0.109694 -34.073219 4.093300
			CHANNELS 3 Xrotation Yrotation Zrotation
			JOINT RightFoot
			{
				OFFSET -0.109694 -29.899384 -6.319200
				CHANNELS 3 Xrotation Yrotation Zrotation
				JOINT RightToeBase
				{
					OFFSET -1.551100 -14.988700 20.535801
					CHANNELS 3 Xrotation Yrotation Zrotation
					JOINT RightToe_End
					{
						OFFSET -0.221200 0.570900 13.248299
						CHANNELS 3 Xrotation Yrotation Zrotation
						End Site
						{
							OFFSET 0.000000 13.262440 0.000000
						}
					}
				}
			}
		}
	}
}
MOTION
Frames: 9
Frame Time: 0.033333
-7.251732 73.372040 93.930946 7.421665 14.083526 0.044872 3.246930 -3.514788 -0.687399 6.433087 -6.285218 -0.971237 6.438474 -6.278917 -0.978453 5.410508 -4.982697 2.786928 -7.756826 -22.713275 5.884976 -0.000000 -0.000001 -0.000000 -1.991229 14.793251 7.271150 -11.569995 23.639934 -2.570511 -0.000002 -12.643793 0.000000 -12.150893 7.388975 38.236830 -4.293909 -11.110882 -17.885168 0.552638 2.485812 -25.064341 0.125630 1.207982 -11.874468 0.000000 -0.000000 -0.000000 0.600884 -27.174691 11.674976 9.411182 16.449657 2.153776 -6.310472 1.108651 13.237722 -0.000003 -0.000001 -0.000001 0.455911 1.863992 0.068952 -27.398532 12.458126 8.405091 -0.000001 47.668191 -0.000001 -38.458142 -7.163893 -10.820824 -7.378075 -1.422125 12.546963 8.119584 -29.519473 -3.209621 -2.707122 -43.382186 -22.482473 0.000001 -0.000003 0.000001 1.810918 -6.347344 75.720707 3.078400 -4.381960 70.164068 2.638755 -4.197920 64.291901 0.000001 -0.000002 0.000001 9.273127 10.473554 18.560894 43.592470 -12.462999 2.284791 -15.149167 -6.660833 -6.801200 -48.346306 2.704233 -3.148679 -0.000000 -0.000001 -0.000000 -55.384542 2.667899 -20.142897 58.321722 9.469297 0.447252 -7.435604 4.303605 16.632060 -3.478626 0.002946 -0.428217 -0.000000 0.000000 -0.000000 
-6.504531 72.056648 93.998764 9.432514 17.252518 -0.612464 3.188572 -2.680185 0.207649 6.253586 -4.726817 0.063094 6.261582 -4.714523 0.053008 3.002735 -5.554085 3.210206 -14.103477 -23.479368 4.817825 -0.000000 0.000002 -0.000000 -2.390642 15.886574 7.999271 -10.515156 24.663197 -7.730206 -0.000002 -16.341905 -0.000002 -13.478030 8.577457 39.428083 -3.926655 -12.752441 -15.194464 0.376620 2.068434 -20.636517 0.072674 0.920896 -9.024375 0.000000 -0.000002 -0.000000 0.928906 -29.014466 12.039411 9.234451 16.178618 2.377906 -6.741680 0.467240 13.200685 -0.000001 -0.000001 -0.000003 0.560088 3.059611 1.087350 -17.424356 2.963092 -10.216297 0.000000 18.012944 -0.000004 -49.683042 -19.687399 -15.436830 -7.378069 -1.422126 12.546964 8.119574 -29.519473 -3.209622 -2.707125 -43.382189 -22.482471 0.000000 -0.000001 -0.000000 1.810920 -6.347342 75.720700 3.078398 -4.381964 70.164061 2.638754 -4.197918 64.291901 0.000001 0.000001 -0.000002 4.770727 9.038920 23.066476 45.497717 -15.222180 -0.949625 -15.176383 -13.068612 -4.173582 -51.661485 0.229864 -0.398853 0.000000 -0.000001 -0.000000 -54.001378 1.147931 -25.248634 57.345462 12.310058 -1.051469 -14.992976 6.682297 20.040062 -1.389589 -0.000002 -0.000008 -0.000000 -0.000002 -0.000000 
-5.626439 71.537971 93.492844 10.009302 20.315288 0.228377 3.147687 -1.616317 0.894155 6.102806 -2.541810 0.574260 6.110125 -2.524456 0.564511 0.528806 -4.406123 1.346141 -20.111939 -19.740679 3.988703 -0.000001 -0.000000 -0.000000 -1.642605 13.142407 6.173942 -9.975596 24.396917 -9.763029 0.000001 -17.071824 -0.000000 -13.071508 8.526777 39.547205 -3.480239 -14.215219 -12.766453 0.246945 1.684600 -16.678125 0.037459 0.662159 -6.475555 -0.000000 -0.000002 -0.000000 1.206163 -30.427216 12.328596 9.103643 15.974839 2.545202 -7.063984 -0.014249 13.172059 0.000001 0.000000 -0.000000 0.042665 -2.106838 -1.686600 -10.787100 -9.532449 -13.902532 0.000003 3.607606 0.000001 -55.269539 -28.315657 -18.508313 -7.378069 -1.422127 12.546963 8.119580 -29.519473 -3.209622 -2.707126 -43.382189 -22.482469 0.000001 -0.000000 0.000002 1.810923 -6.347343 75.720707 3.078398 -4.381961 70.164068 2.638757 -4.197919 64.291894 -0.000001 -0.000001 -0.000002 3.210813 8.048660 23.242891 45.930454 -14.938942 -0.841505 -17.116724 -16.281836 -4.362537 -49.635647 -0.018639 0.031541 -0.000000 0.000000 0.000000 -55.343401 -1.385297 -30.216139 58.215690 11.313864 1.334929 -14.925862 8.620349 12.755542 -1.688418 -0.000006 -0.000003 0.000000 -0.000001 0.000000 
-5.455876 70.739441 93.440628 10.407567 18.761947 0.325888 3.044506 -0.982663 0.894844 5.881664 -1.134932 0.460311 5.886443 -1.116473 0.452841 -0.305642 -3.045944 -0.606351 -23.202824 -16.165540 3.401919 -0.000000 0.000000 0.000000 -0.826704 9.077508 3.667722 -8.844491 25.888729 -10.374084 0.000002 -15.854976 0.000001 -12.732775 7.979643 39.295318 -3.004241 -15.467027 -10.652541 0.156657 1.347112 -13.266113 0.016357 0.437971 -4.277940 -0.000001 -0.000004 0.000003 1.395749 -31.333377 12.518273 9.022237 15.846633 2.649922 -7.265895 -0.316775 13.153782 -0.000002 0.000000 -0.000000 -1.250827 -9.732253 -6.345522 -10.741459 -15.714839 -9.372795 0.000001 4.529838 -0.000001 -55.355599 -29.636730 -19.195646 -7.378072 -1.422126 12.546962 8.119578 -29.519470 -3.209619 -2.707126 -43.382186 -22.482473 -0.000001 0.000002 -0.000001 1.810922 -6.347342 75.720707 3.078396 -4.381960 70.164061 2.638756 -4.197928 64.291894 -0.000002 0.000002 -0.000001 5.412087 9.477027 22.424944 44.630351 -14.773192 -0.952618 -21.120413 -17.347688 -3.674237 -46.572437 -0.093199 0.296268 -0.000000 0.000000 0.000000 -57.189888 0.033854 -29.064128 59.915587 11.503942 0.585440 -15.089076 8.406308 12.987413 -1.438561 0.000005 -0.000001 -0.000000 0.000000 0.000000 
-5.721091 70.007919 93.883102 10.806050 17.190908 0.820262 2.804000 -1.270770 0.586971 5.420873 -1.676073 0.153229 5.425429 -1.660774 0.146211 0.219519 -2.418744 -1.312588 -23.315269 -13.957872 2.265449 -0.000000 0.000000 -0.000000 -0.491286 6.377100 2.187466 -7.058658 29.146941 -11.541340 -0.000004 -14.144288 0.000001 -13.408560 7.634061 39.086587 -2.551565 -16.480591 -8.908173 0.097890 1.067609 -10.477526 0.005510 0.254217 -2.481504 -0.000000 -0.000003 -0.000002 1.464778 -31.653265 12.585762 8.994154 15.802140 2.686151 -7.335816 -0.421706 13.147384 -0.000000 0.000000 -0.000002 -2.278771 -14.343428 -8.762791 -9.726099 -19.460257 -4.814667 0.000000 5.155429 0.000002 -53.763636 -27.743318 -17.471363 -7.378074 -1.422129 12.546961 8.119579 -29.519473 -3.209622 -2.707128 -43.382189 -22.482476 0.000001 -0.000000 0.000001 1.810920 -6.347348 75.720707 3.078401 -4.381963 70.164068 2.638754 -4.197922 64.291894 0.000002 0.000001 -0.000000 7.324242 10.811040 21.633419 42.887434 -14.937036 -1.290740 -22.860527 -16.107249 -4.519852 -45.250994 -0.051666 0.154081 0.000000 -0.000000 0.000000 -58.627298 2.298504 -27.373199 62.296257 11.500467 0.007585 -16.119130 7.709002 12.831876 -1.445497 0.000010 -0.000005 -0.000000 0.000001 -0.000000 
-5.927260 69.815376 94.188553 11.623051 17.878780 1.692429 2.475046 -2.219428 0.461610 4.787173 -3.672074 0.202837 4.794542 -3.661651 0.193387 1.011334 -2.258490 -1.069771 -21.801988 -12.410233 1.124061 0.000000 -0.000000 -0.000000 -0.458957 5.840307 2.086010 -5.005707 32.278115 -13.905083 0.000001 -13.028394 -0.000002 -15.013825 7.806323 38.950520 -2.174705 -17.232185 -7.591178 0.062829 0.856606 -8.389684 0.001155 0.116444 -1.136313 -0.000001 -0.000003 -0.000001 1.455799 -31.520647 12.607662 8.994157 15.802157 2.686173 -7.335822 -0.421732 13.147353 -0.000001 0.000001 0.000000 -2.052703 -13.166683 -8.514710 -8.010769 -20.701888 -4.369618 0.000003 0.000015 0.000000 -51.043465 -24.037113 -13.741109 -7.378076 -1.422128 12.546964 8.119577 -29.519470 -3.209619 -2.707126 -43.382186 -22.482479 0.000000 -0.000000 0.000001 1.810918 -6.347346 75.720707 3.078401 -4.381963 70.164068 2.638748 -4.197923 64.291901 0.000002 -0.000000 -0.000001 7.259845 9.749694 20.454791 41.991935 -15.223192 -1.670493 -22.687320 -13.021401 -5.867658 -44.498484 0.117671 -0.364766 0.000000 0.000001 0.000000 -59.841350 3.169259 -28.420163 63.756005 11.469059 -0.232143 -17.061030 7.845867 12.662120 -1.360680 -0.000006 -0.000004 0.000000 0.000001 -0.000000 
-5.897835 69.799095 94.180359 11.778353 18.081831 1.219102 2.258355 -3.133469 0.579993 4.378596 -5.556993 0.633237 4.389243 -5.549968 0.620439 1.415373 -2.165111 -0.667517 -19.926850 -11.260420 0.845447 -0.000000 0.000001 0.000000 -0.488626 6.344253 2.617347 -3.403951 33.622586 -16.306279 -0.000004 -12.839913 -0.000000 -16.982214 8.386161 38.603772 -1.921595 -17.699949 -6.759946 0.044769 0.723659 -7.080036 0.000076 0.029968 -0.292434 0.000000 0.000002 0.000003 1.430099 -31.144484 12.669801 8.994161 15.802158 2.686181 -7.335823 -0.421725 13.147337 -0.000001 -0.000001 -0.000001 -2.395950 -15.683875 -8.214282 -10.764731 -23.331004 -4.233206 -0.000002 7.771185 -0.000005 -51.062566 -24.917228 -16.999846 -7.378075 -1.422126 12.546965 8.119585 -29.519473 -3.209623 -2.707125 -43.382182 -22.482471 -0.000003 -0.000002 -0.000000 1.810921 -6.347342 75.720700 3.078396 -4.381958 70.164068 2.638759 -4.197923 64.291901 0.000001 -0.000003 0.000001 7.516929 9.324894 20.739659 41.694610 -15.255671 -1.763289 -23.447298 -12.028700 -6.204587 -43.592607 0.155184 -0.502875 0.000000 -0.000000 0.000000 -59.981635 2.813498 -28.726703 63.880820 11.290980 0.384497 -17.073854 8.026779 11.691513 -1.080727 -0.000009 0.000002 0.000000 -0.000000 0.000000 
-5.853318 69.770996 93.856041 10.554581 18.109955 0.900931 2.270286 -3.599425 0.766122 4.398078 -6.464371 0.940733 4.411199 -6.457610 0.924515 1.338260 -2.130103 -0.302933 -18.237968 -10.701087 1.472983 -0.000001 -0.000000 0.000000 -0.347019 6.355500 2.884422 -3.099088 32.693411 -17.038873 -0.000003 -13.101790 -0.000002 -18.969684 9.032656 37.584093 -1.830871 -17.861300 -6.470948 0.039221 0.677490 -6.626213 -0.000002 0.000002 0.000003 -0.000002 0.000000 0.000001 1.389226 -30.557290 12.766672 8.994154 15.802153 2.686181 -7.335823 -0.421718 13.147345 -0.000002 0.000001 0.000001 -2.637052 -17.162235 -8.279443 -12.672799 -20.529105 -4.646309 0.000003 5.329317 0.000004 -49.997825 -23.511745 -15.369239 -7.378075 -1.422129 12.546964 8.119579 -29.519473 -3.209617 -2.707124 -43.382186 -22.482473 -0.000000 0.000001 -0.000001 1.810918 -6.347344 75.720707 3.078399 -4.381960 70.164068 2.638755 -4.197925 64.291894 0.000002 -0.000001 0.000001 8.490475 9.717726 21.657915 41.830175 -15.259339 -1.616518 -24.311956 -13.189060 -6.341308 -43.365554 0.021925 -0.073872 -0.000000 0.000000 0.000000 -59.328328 2.027124 -29.189841 64.204113 11.181402 1.154552 -16.839056 8.644447 9.690146 -1.111924 -0.000004 -0.000005 -0.000000 -0.000002 0.000000 
-5.921796 69.557755 93.142708 9.313812 18.235546 1.227878 2.478221 -3.752765 0.868580 4.757423 -6.647169 0.787832 4.773107 -6.637360 0.767414 0.913722 -2.212023 0.136409 -16.905521 -10.634813 2.575402 0.000000 0.000000 -0.000000 0.100485 5.159296 2.553472 -4.388128 29.721920 -15.465167 0.000003 -12.994446 0.000001 -21.196295 9.431145 35.550783 -1.811902 -17.701757 -6.448695 0.039220 0.677494 -6.626210 -0.000001 -0.000004 -0.000006 -0.000001 -0.000001 -0.000001 1.334563 -29.791581 12.892895 8.994160 15.802157 2.686182 -7.335819 -0.421718 13.147345 0.000001 -0.000000 0.000002 -2.593026 -17.482924 -7.791737 -14.413668 -16.276793 -5.649574 0.000001 -0.000002 0.000001 -51.870601 -21.061436 -13.253825 -7.378072 -1.422129 12.546962 8.119579 -29.519470 -3.209619 -2.707126 -43.382192 -22.482473 0.000002 0.000001 -0.000000 1.810919 -6.347345 75.720707 3.078399 -4.381968 70.164061 2.638759 -4.197918 64.291894 0.000000 -0.000000 -0.000001 9.674579 9.348559 21.477368 42.436413 -14.879374 -1.136737 -26.324114 -14.537431 -5.960812 -41.931979 -0.053854 0.167697 -0.000000 0.000000 0.000000 -59.326122 2.169774 -30.065680 65.049520 11.129245 1.869029 -16.269652 8.839113 7.521302 -2.029339 0.000006 -0.000008 -0.000000 0.000001 0.000001 
